<svg width="152" height="29" viewBox="0 0 152 29" fill="none" xmlns="http://www.w3.org/2000/svg">
<path d="M128.692 22.0009V7.51094H132.622V22.0009H128.692ZM138.142 22.0009V13.4509C138.142 12.6109 137.872 11.9609 137.332 11.5009C136.812 11.0209 136.162 10.7809 135.382 10.7809C134.862 10.7809 134.392 10.8909 133.972 11.1109C133.552 11.3109 133.222 11.6109 132.982 12.0109C132.742 12.4109 132.622 12.8909 132.622 13.4509L131.092 12.7009C131.092 11.5809 131.332 10.6109 131.812 9.79094C132.312 8.97094 132.982 8.34094 133.822 7.90094C134.662 7.44094 135.612 7.21094 136.672 7.21094C137.672 7.21094 138.582 7.44094 139.402 7.90094C140.222 8.34094 140.872 8.97094 141.352 9.79094C141.832 10.5909 142.072 11.5609 142.072 12.7009V22.0009H138.142ZM147.592 22.0009V13.4509C147.592 12.6109 147.322 11.9609 146.782 11.5009C146.262 11.0209 145.612 10.7809 144.832 10.7809C144.332 10.7809 143.862 10.8909 143.422 11.1109C143.002 11.3109 142.672 11.6109 142.432 12.0109C142.192 12.4109 142.072 12.8909 142.072 13.4509L139.822 12.9109C139.902 11.7509 140.212 10.7509 140.752 9.91094C141.292 9.05094 142.002 8.39094 142.882 7.93094C143.762 7.45094 144.742 7.21094 145.822 7.21094C146.902 7.21094 147.872 7.44094 148.732 7.90094C149.592 8.34094 150.272 8.98094 150.772 9.82094C151.272 10.6609 151.522 11.6609 151.522 12.8209V22.0009H147.592Z" fill="white"/>
<path d="M118.422 22.3007C116.962 22.3007 115.642 21.9707 114.462 21.3107C113.302 20.6307 112.372 19.7207 111.672 18.5807C110.992 17.4207 110.652 16.1307 110.652 14.7107C110.652 13.2907 110.992 12.0207 111.672 10.9007C112.352 9.76066 113.282 8.86066 114.462 8.20066C115.642 7.52066 116.952 7.18066 118.392 7.18066C119.872 7.18066 121.192 7.52066 122.352 8.20066C123.532 8.86066 124.462 9.76066 125.142 10.9007C125.822 12.0207 126.162 13.2907 126.162 14.7107C126.162 16.1307 125.822 17.4207 125.142 18.5807C124.462 19.7207 123.532 20.6307 122.352 21.3107C121.192 21.9707 119.882 22.3007 118.422 22.3007ZM118.392 18.6407C119.132 18.6407 119.782 18.4807 120.342 18.1607C120.922 17.8207 121.362 17.3607 121.662 16.7807C121.982 16.1807 122.142 15.5007 122.142 14.7407C122.142 13.9807 121.982 13.3107 121.662 12.7307C121.342 12.1507 120.902 11.7007 120.342 11.3807C119.782 11.0407 119.132 10.8707 118.392 10.8707C117.672 10.8707 117.032 11.0407 116.472 11.3807C115.912 11.7007 115.472 12.1507 115.152 12.7307C114.832 13.3107 114.672 13.9807 114.672 14.7407C114.672 15.5007 114.832 16.1807 115.152 16.7807C115.472 17.3607 115.912 17.8207 116.472 18.1607C117.032 18.4807 117.672 18.6407 118.392 18.6407Z" fill="white"/>
<path d="M101.342 22.3007C99.8823 22.3007 98.5623 21.9707 97.3823 21.3107C96.2223 20.6307 95.2923 19.7207 94.5923 18.5807C93.9123 17.4207 93.5723 16.1307 93.5723 14.7107C93.5723 13.2907 93.9123 12.0207 94.5923 10.9007C95.2723 9.76066 96.2023 8.86066 97.3823 8.20066C98.5623 7.52066 99.8723 7.18066 101.312 7.18066C102.792 7.18066 104.112 7.52066 105.272 8.20066C106.452 8.86066 107.382 9.76066 108.062 10.9007C108.742 12.0207 109.082 13.2907 109.082 14.7107C109.082 16.1307 108.742 17.4207 108.062 18.5807C107.382 19.7207 106.452 20.6307 105.272 21.3107C104.112 21.9707 102.802 22.3007 101.342 22.3007ZM101.312 18.6407C102.052 18.6407 102.702 18.4807 103.262 18.1607C103.842 17.8207 104.282 17.3607 104.582 16.7807C104.902 16.1807 105.062 15.5007 105.062 14.7407C105.062 13.9807 104.902 13.3107 104.582 12.7307C104.262 12.1507 103.822 11.7007 103.262 11.3807C102.702 11.0407 102.052 10.8707 101.312 10.8707C100.592 10.8707 99.9523 11.0407 99.3923 11.3807C98.8323 11.7007 98.3923 12.1507 98.0723 12.7307C97.7523 13.3107 97.5923 13.9807 97.5923 14.7407C97.5923 15.5007 97.7523 16.1807 98.0723 16.7807C98.3923 17.3607 98.8323 17.8207 99.3923 18.1607C99.9523 18.4807 100.592 18.6407 101.312 18.6407Z" fill="white"/>
<path d="M78.6631 22.0002V0.910156H82.7431V22.0002H78.6631ZM81.6631 22.0002V18.3702H92.4031V22.0002H81.6631Z" fill="white"/>
<path d="M72.0957 22.3003C71.3757 22.3003 70.7857 22.0603 70.3257 21.5803C69.8657 21.1003 69.6357 20.5103 69.6357 19.8103C69.6357 19.1103 69.8657 18.5203 70.3257 18.0403C70.7857 17.5603 71.3757 17.3203 72.0957 17.3203C72.7957 17.3203 73.3757 17.5603 73.8357 18.0403C74.2957 18.5203 74.5257 19.1103 74.5257 19.8103C74.5257 20.5103 74.2957 21.1003 73.8357 21.5803C73.3757 22.0603 72.7957 22.3003 72.0957 22.3003Z" fill="#B8A893"/>
<path d="M60.0951 22.3007C58.5751 22.3007 57.2251 21.9807 56.0451 21.3407C54.8651 20.6807 53.9251 19.7807 53.2251 18.6407C52.5451 17.5007 52.2051 16.2007 52.2051 14.7407C52.2051 13.3007 52.5351 12.0207 53.1951 10.9007C53.8751 9.76066 54.7951 8.86066 55.9551 8.20066C57.1151 7.52066 58.4051 7.18066 59.8251 7.18066C61.2251 7.18066 62.4551 7.50066 63.5151 8.14066C64.5951 8.76066 65.4351 9.62066 66.0351 10.7207C66.6551 11.8007 66.9651 13.0307 66.9651 14.4107C66.9651 14.6707 66.9451 14.9407 66.9051 15.2207C66.8851 15.4807 66.8351 15.7807 66.7551 16.1207L54.5751 16.1507V13.2107L64.9251 13.1807L63.3351 14.4107C63.2951 13.5507 63.1351 12.8307 62.8551 12.2507C62.5951 11.6707 62.2051 11.2307 61.6851 10.9307C61.1851 10.6107 60.5651 10.4507 59.8251 10.4507C59.0451 10.4507 58.3651 10.6307 57.7851 10.9907C57.2051 11.3307 56.7551 11.8207 56.4351 12.4607C56.1351 13.0807 55.9851 13.8207 55.9851 14.6807C55.9851 15.5607 56.1451 16.3307 56.4651 16.9907C56.8051 17.6307 57.2851 18.1307 57.9051 18.4907C58.5251 18.8307 59.2451 19.0007 60.0651 19.0007C60.8051 19.0007 61.4751 18.8807 62.0751 18.6407C62.6751 18.3807 63.1951 18.0007 63.6351 17.5007L65.9451 19.8107C65.2451 20.6307 64.3851 21.2507 63.3651 21.6707C62.3651 22.0907 61.2751 22.3007 60.0951 22.3007Z" fill="white"/>
<path d="M45.7529 22.0005V0.310547H49.6829V22.0005H45.7529Z" fill="white"/>
<path d="M34.8735 22.1207L28.8135 7.51074H33.0735L37.0935 18.6707H35.6535L39.8235 7.51074H44.1135L37.6635 22.0907L34.8735 22.1207ZM30.8535 28.0607L35.2635 18.7307L37.6635 22.0907L35.0235 28.0607H30.8535Z" fill="white"/>
<path d="M20.7836 22.0005V1.48047H24.7136V22.0005H20.7836ZM17.3936 10.9605V7.51047H28.1036V10.9605H17.3936Z" fill="white"/>
<path d="M8.11338 22.3001C6.41338 22.3001 4.95338 22.0101 3.73338 21.4301C2.53338 20.8501 1.44338 19.9801 0.463379 18.8201L3.16338 16.1201C3.78338 16.9401 4.50338 17.5801 5.32338 18.0401C6.14338 18.4801 7.14338 18.7001 8.32338 18.7001C9.38338 18.7001 10.2234 18.4901 10.8434 18.0701C11.4834 17.6501 11.8034 17.0701 11.8034 16.3301C11.8034 15.6901 11.6234 15.1701 11.2634 14.7701C10.9034 14.3701 10.4234 14.0301 9.82338 13.7501C9.24338 13.4701 8.59338 13.2201 7.87338 13.0001C7.17338 12.7601 6.46338 12.4901 5.74338 12.1901C5.04338 11.8901 4.39338 11.5201 3.79338 11.0801C3.21338 10.6201 2.74338 10.0401 2.38338 9.34008C2.02338 8.62008 1.84338 7.72008 1.84338 6.64008C1.84338 5.36008 2.15338 4.27008 2.77338 3.37008C3.39338 2.47008 4.24338 1.78008 5.32338 1.30008C6.40338 0.820078 7.62338 0.580078 8.98338 0.580078C10.4234 0.580078 11.7234 0.850078 12.8834 1.39008C14.0434 1.93008 14.9934 2.63008 15.7334 3.49008L13.0334 6.19008C12.4134 5.51008 11.7734 5.01008 11.1134 4.69008C10.4734 4.37008 9.74338 4.21008 8.92338 4.21008C7.98338 4.21008 7.24338 4.39008 6.70338 4.75008C6.16338 5.11008 5.89338 5.63008 5.89338 6.31008C5.89338 6.89008 6.07338 7.36008 6.43338 7.72008C6.79338 8.08008 7.26338 8.39008 7.84338 8.65008C8.44338 8.91008 9.09338 9.16008 9.79338 9.40008C10.5134 9.64008 11.2234 9.91008 11.9234 10.2101C12.6434 10.5101 13.2934 10.9001 13.8734 11.3801C14.4734 11.8601 14.9534 12.4801 15.3134 13.2401C15.6734 13.9801 15.8534 14.9001 15.8534 16.0001C15.8534 17.9601 15.1634 19.5001 13.7834 20.6201C12.4034 21.7401 10.5134 22.3001 8.11338 22.3001Z" fill="white"/>
</svg>
