<svg width="201" height="200" viewBox="0 0 201 200" fill="none" xmlns="http://www.w3.org/2000/svg">
<path d="M200.977 112.202L188.095 87.8673C169.545 97.6841 154.474 103.653 143.044 105.703C156.363 96.601 168.462 80.931 179.477 58.5551L154.773 46.3648C147.261 61.597 140.232 71.3677 133.872 77.5896C137.49 60.8826 132.881 37.3315 113.109 0L88.7749 12.8817C98.5917 31.4322 104.56 46.5031 106.611 57.9099C97.5086 44.5904 81.8386 32.5153 59.4858 21.4771L47.2955 46.1805C62.5276 53.6928 72.2983 60.7213 78.5202 67.0815C61.8133 63.4635 38.2622 68.0724 0.930664 87.8212L13.8123 112.156C32.3398 102.339 47.3876 96.3936 58.8175 94.3196C45.475 103.537 33.3998 119.184 22.4308 141.445L47.1341 153.635C54.6004 138.472 61.652 128.678 68.0352 122.41C64.4172 139.117 69.0261 162.669 88.7979 200L113.133 187.118C103.316 168.591 97.3703 153.543 95.2964 142.113C104.514 155.456 120.161 167.531 142.422 178.5L154.612 153.797C139.449 146.33 129.655 139.302 123.387 132.919C126.775 133.656 130.416 134.048 134.425 134.048C150.188 134.048 171.227 127.918 201 112.156L200.977 112.202Z" fill="#C2B4A3"/>
</svg>
