<svg width="201" height="200" viewBox="0 0 201 200" fill="none" xmlns="http://www.w3.org/2000/svg">
<g clip-path="url(#clip0_301_32631)">
<mask id="mask0_301_32631" style="mask-type:luminance" maskUnits="userSpaceOnUse" x="0" y="0" width="201" height="200">
<path d="M200.542 0H0.541992V200H200.542V0Z" fill="white"/>
</mask>
<g mask="url(#mask0_301_32631)">
<path fill-rule="evenodd" clip-rule="evenodd" d="M107.685 0H93.3991V63.2531L69.7041 4.60582L56.4586 9.95735L80.7675 70.1239L34.8821 24.2385L24.7806 34.3401L68.7597 78.3191L11.7661 53.4181L6.04658 66.5089L66.3525 92.8571H0.541992V107.143H66.3524L6.0466 133.491L11.7661 146.582L68.7596 121.681L24.7806 165.66L34.8821 175.761L80.7675 129.876L56.4586 190.043L69.7041 195.394L93.3991 136.747V200H107.685V136.747L131.38 195.394L144.625 190.043L120.317 129.876L166.202 175.761L176.303 165.66L132.324 121.681L189.318 146.582L195.037 133.491L134.732 107.143H200.542V92.8571H134.731L195.037 66.5089L189.318 53.4181L132.324 78.3191L176.303 34.34L166.202 24.2385L120.317 70.1238L144.625 9.95735L131.38 4.60582L107.685 63.2531V0Z" fill="#C2B4A3"/>
</g>
</g>
<defs>
<clipPath id="clip0_301_32631">
<rect width="200" height="200" fill="white" transform="translate(0.541992)"/>
</clipPath>
</defs>
</svg>
