<svg width="192" height="200" viewBox="0 0 192 200" fill="none" xmlns="http://www.w3.org/2000/svg">
<path d="M188.089 124.6L144.022 104.713C139.962 102.885 139.962 97.1223 144.022 95.2946L188.089 75.4075C193.712 72.8721 190.959 64.3873 184.916 65.6394L137.582 75.4542C133.227 76.3564 129.836 71.6979 132.045 67.8325L156.007 25.8421C159.064 20.4757 151.846 15.2337 147.693 19.799L115.168 55.5596C112.173 58.8494 106.698 57.0763 106.208 52.651L100.912 4.60229C100.235 -1.5341 91.3144 -1.5341 90.6378 4.60229L85.3413 52.651C84.8513 57.0763 79.376 58.8494 76.3817 55.5596L43.8487 19.799C39.6956 15.2337 32.4782 20.4757 35.5347 25.8421L59.497 67.8325C61.7058 71.6979 58.3147 76.3564 53.9594 75.4542L6.62612 65.6394C0.583066 64.3873 -2.17798 72.8721 3.45287 75.4075L47.5198 95.2946C51.5796 97.1223 51.5796 102.885 47.5198 104.713L3.45287 124.6C-2.1702 127.143 0.583066 135.62 6.62612 134.368L53.9594 124.553C58.3147 123.651 61.7058 128.31 59.497 132.175L35.5347 174.165C32.4782 179.524 39.6956 184.766 43.8487 180.201L76.3817 144.44C79.376 141.15 84.8513 142.931 85.3413 147.349L90.6378 195.398C91.3144 201.534 100.235 201.534 100.912 195.398L106.208 147.349C106.698 142.923 112.173 141.142 115.168 144.44L147.693 180.201C151.846 184.766 159.064 179.524 156.007 174.165L132.045 132.175C129.844 128.31 133.227 123.651 137.582 124.553L184.916 134.368C190.959 135.62 193.72 127.135 188.089 124.6Z" fill="#C2B4A3"/>
</svg>
