<svg width="24" height="25" viewBox="0 0 24 25" fill="none" xmlns="http://www.w3.org/2000/svg">
<path d="M2.25 2.75C1.83579 2.75 1.5 3.08579 1.5 3.5C1.5 3.91421 1.83579 4.25 2.25 4.25H3.63568C3.80558 4.25 3.95425 4.36422 3.99803 4.52838L6.55576 14.1199C4.94178 14.5385 3.75 16.0051 3.75 17.75C3.75 18.1642 4.08579 18.5 4.5 18.5H20.25C20.6642 18.5 21 18.1642 21 17.75C21 17.3358 20.6642 17 20.25 17H5.37803C5.68691 16.1261 6.52034 15.5 7.5 15.5H18.7183C19.0051 15.5 19.2668 15.3364 19.3925 15.0785C20.5277 12.749 21.5183 10.336 22.3527 7.85126C22.4191 7.65357 22.4002 7.43716 22.3005 7.25399C22.2008 7.07082 22.0294 6.93743 21.8273 6.88583C17.0055 5.65442 11.9536 5 6.75 5C6.39217 5 6.03505 5.0031 5.67868 5.00926L5.44738 4.14188C5.2285 3.32109 4.48515 2.75 3.63568 2.75H2.25Z" fill="white"/>
<path d="M3.75 20.75C3.75 19.9216 4.42157 19.25 5.25 19.25C6.07843 19.25 6.75 19.9216 6.75 20.75C6.75 21.5784 6.07843 22.25 5.25 22.25C4.42157 22.25 3.75 21.5784 3.75 20.75Z" fill="white"/>
<path d="M16.5 20.75C16.5 19.9216 17.1716 19.25 18 19.25C18.8284 19.25 19.5 19.9216 19.5 20.75C19.5 21.5784 18.8284 22.25 18 22.25C17.1716 22.25 16.5 21.5784 16.5 20.75Z" fill="white"/>
</svg>
