<svg width="30" height="30" viewBox="0 0 30 30" fill="none" xmlns="http://www.w3.org/2000/svg">
<path d="M10.9671 5.66154C12.7616 2.44252 13.6588 0.833008 15.0002 0.833008C16.3416 0.833008 17.2388 2.44252 19.0332 5.66154L19.4974 6.49434C20.0073 7.40908 20.2623 7.86646 20.6598 8.16823C21.0574 8.47001 21.5525 8.58203 22.5427 8.80608L23.4442 9.01005C26.9287 9.79846 28.671 10.1927 29.0855 11.5256C29.5 12.8586 28.3122 14.2475 25.9367 17.0254L25.3221 17.7441C24.6471 18.5335 24.3095 18.9282 24.1577 19.4164C24.0058 19.9047 24.0569 20.4313 24.1589 21.4845L24.2519 22.4434C24.611 26.1497 24.7906 28.0028 23.7054 28.8267C22.6202 29.6505 20.9889 28.8994 17.7263 27.3972L16.8822 27.0085C15.9551 26.5816 15.4915 26.3682 15.0002 26.3682C14.5088 26.3682 14.0452 26.5817 13.1181 27.0085L12.274 27.3972C9.01145 28.8994 7.38016 29.6505 6.29496 28.8267C5.20975 28.0028 5.38933 26.1497 5.74847 22.4434L5.84139 21.4845C5.94345 20.4313 5.99448 19.9047 5.84264 19.4164C5.69079 18.9282 5.35327 18.5335 4.67821 17.7441L4.06363 17.0254C1.6881 14.2475 0.500331 12.8586 0.914843 11.5256C1.32935 10.1927 3.07163 9.79846 6.55617 9.01005L7.45767 8.80608C8.44787 8.58204 8.94297 8.47001 9.3405 8.16823C9.73803 7.86646 9.99299 7.40908 10.5029 6.49434L10.9671 5.66154Z" fill="#C2B4A3"/>
</svg>
